<svg width="139" height="26" viewBox="0 0 139 26" fill="none" xmlns="http://www.w3.org/2000/svg">
<path d="M19.3008 12.1328H20.2852C20.6836 12.1328 21.0586 12.168 21.4102 12.2383C21.7852 12.3086 21.9727 12.5664 21.9727 13.0117C22.1367 13.9492 21.5859 14.4062 20.3203 14.3828C19.9688 14.3594 19.6406 14.3359 19.3359 14.3125C19.0547 14.2891 18.8203 14.2891 18.6328 14.3125C18.4453 14.3125 18.3633 14.3711 18.3867 14.4883C18.6211 15.168 18.8672 15.9297 19.125 16.7734C19.4062 17.6172 19.7109 18.4609 20.0391 19.3047C20.8828 21.3906 21.6797 22.8906 22.4297 23.8047C22.0312 24.2969 21.5625 24.707 21.0234 25.0352C20.5078 25.3633 20.2266 25.5273 20.1797 25.5273C20.1562 25.5273 20.1328 25.5156 20.1094 25.4922L15.1523 15.0508L5.55469 17.4062L5.20312 18.8828C4.52344 21.5781 3.76172 23.4531 2.91797 24.5078C2.77734 24.7422 2.48438 24.7656 2.03906 24.5781C1.28906 24.2969 0.914062 24.0625 0.914062 23.875C0.914062 23.8281 1.16016 23.1484 1.65234 21.8359C2.14453 20.5234 2.63672 19.1992 3.12891 17.8633C3.64453 16.5039 4.17188 15.0859 4.71094 13.6094C5.27344 12.1328 5.80078 10.7266 6.29297 9.39062C6.78516 8.05469 7.23047 6.85938 7.62891 5.80469C8.02734 4.72656 8.30859 3.95313 8.47266 3.48438C8.63672 2.99219 8.74219 2.57031 8.78906 2.21875C8.85938 1.84375 8.95312 1.52734 9.07031 1.26953C9.30469 0.730469 9.89062 0.460938 10.8281 0.460938C11.8359 1.02344 12.6094 1.76172 13.1484 2.67578C13.7109 3.56641 14.1797 4.52734 14.5547 5.55859C14.9531 6.58984 15.3398 7.63281 15.7148 8.6875C16.0898 9.74219 16.5938 10.7031 17.2266 11.5703C17.4375 11.8984 17.7539 12.0742 18.1758 12.0977C18.5977 12.1211 18.9727 12.1328 19.3008 12.1328ZM10.5117 4.53906C10.3242 5.96875 9.90234 7.43359 9.24609 8.93359C8.58984 10.4336 8.0625 11.6055 7.66406 12.4492C7.26562 13.2695 6.92578 14.0312 6.64453 14.7344C8.23828 14.7344 10.1953 14.2656 12.5156 13.3281C13.1016 13.0703 13.6641 12.8359 14.2031 12.625C13.1016 7.91406 11.8711 5.21875 10.5117 4.53906ZM26.9297 24.4375C25.9688 24.8359 25.3242 25.0352 24.9961 25.0352C24.6914 25.0352 24.4805 25 24.3633 24.9297C24.2461 24.8594 24.1172 24.6953 23.9766 24.4375C23.9766 23.6641 24 22.6914 24.0469 21.5195C24.1172 20.3477 24.1758 19.0938 24.2227 17.7578C24.2695 16.4219 24.293 15.0742 24.293 13.7148C24.293 12.3555 24.2227 11.1133 24.082 9.98828C24.082 9.23828 24.5859 8.86328 25.5938 8.86328C25.8281 8.86328 26.0039 9.28516 26.1211 10.1289C26.2617 10.9727 26.3555 11.6289 26.4023 12.0977C26.4727 12.5664 26.5312 12.9062 26.5781 13.1172C27.1875 12.0156 28.3945 11.1484 30.1992 10.5156C31.1602 10.2109 32.0625 10.0586 32.9062 10.0586C33.75 10.0586 34.4883 10.1641 35.1211 10.375C35.7773 10.5625 36.3281 10.9258 36.7734 11.4648C37.2422 11.9805 37.4766 12.6719 37.4766 13.5391C38.0859 12.3906 39.457 11.3594 41.5898 10.4453C43.5352 9.57812 45.2812 9.14453 46.8281 9.14453C49.0547 9.14453 50.1445 9.98828 50.0977 11.6758L50.8359 24.7539C50.8359 24.8711 50.4961 24.9531 49.8164 25C48.5039 25.0938 47.8477 24.9766 47.8477 24.6484C47.8242 24.1797 47.8125 23.7109 47.8125 23.2422L47.9883 17.582C47.9883 14.9336 47.7305 12.8359 47.2148 11.2891C45.668 11.4062 44.4727 11.6641 43.6289 12.0625C42.8086 12.4375 42.082 12.918 41.4492 13.5039C40.8164 14.0664 40.2539 14.8281 39.7617 15.7891C38.6602 17.9453 38.1094 20.8047 38.1094 24.3672C37.9688 24.8594 37.5117 25.1055 36.7383 25.1055C36.2227 25.1055 35.8008 25.0234 35.4727 24.8594C35.1445 24.6719 35.0156 24.5078 35.0859 24.3672C35.5312 21.8828 35.7539 19.9492 35.7539 18.5664C35.7539 17.4648 35.6367 16.4219 35.4023 15.4375C35.1914 14.4297 34.9219 13.2812 34.5938 11.9922C31.2188 11.9922 28.9453 13.3398 27.7734 16.0352C27.2578 17.2305 26.9648 18.3555 26.8945 19.4102C26.8477 20.4414 26.8242 21.332 26.8242 22.082C26.8242 22.8086 26.8594 23.5938 26.9297 24.4375ZM59.2031 22.5391C61.2656 22.5391 64.3711 21.6016 68.5195 19.7266C68.7773 19.7266 68.9883 19.8203 69.1523 20.0078C69.3164 20.1719 69.3984 20.3711 69.3984 20.6055C68.4609 22.1992 66.668 23.4414 64.0195 24.332C61.3711 25.2227 58.8984 25.375 56.6016 24.7891C54 24.1094 52.418 22.6445 51.8555 20.3945C51.8086 19.9492 51.7852 19.3516 51.7852 18.6016C51.7852 17.8516 51.9727 16.8672 52.3477 15.6484C52.7461 14.4062 53.4141 13.2344 54.3516 12.1328C55.2891 11.0312 56.3906 10.1641 57.6562 9.53125C58.9219 8.89844 60.2695 8.58203 61.6992 8.58203C63.0586 8.58203 64.582 9.05078 66.2695 9.98828C67.0664 10.4336 67.6992 10.9375 68.168 11.5C68.6367 12.0625 68.8711 12.6367 68.8711 13.2227C68.8711 13.3867 68.8594 13.5508 68.8359 13.7148C68.7891 15.1445 68.0977 16.0469 66.7617 16.4219C66.1758 16.5859 65.4961 16.668 64.7227 16.668L59.6602 16.457C57.9727 16.457 56.6836 16.8203 55.793 17.5469C55.2773 17.9453 54.9141 18.543 54.7031 19.3398C55.2891 21.4727 56.7891 22.5391 59.2031 22.5391ZM65.4609 11.6758C64.9453 11.3008 64.4062 11.0312 63.8438 10.8672C63.2812 10.7031 62.8125 10.6211 62.4375 10.6211C62.0625 10.6211 61.4531 10.75 60.6094 11.0078C59.7656 11.2422 59.0156 11.5117 58.3594 11.8164C56.7422 12.5664 55.9336 13.3516 55.9336 14.1719C57.8086 14.3359 59.2148 14.418 60.1523 14.418C62.7539 14.418 64.5117 14.1953 65.4258 13.75C65.9883 13.5156 66.2695 13.2227 66.2695 12.8711C66.2695 12.4492 66 12.0508 65.4609 11.6758ZM72.1406 11.3594C72.0938 10.0938 72.0469 8.96875 72 7.98438C71.9531 6.97656 71.918 6.23828 71.8945 5.76953C71.8945 5.27734 71.707 4.09375 71.332 2.21875C71.543 1.9375 71.7422 1.66797 71.9297 1.41016C72.1406 1.15234 72.4336 1.02344 72.8086 1.02344C73.6289 1.02344 74.2617 4.48047 74.707 11.3945C74.9414 15.4023 75.0586 19.4102 75.0586 23.418C75.0586 24.4961 74.3086 25.0352 72.8086 25.0352L72.5273 25C72.5273 23.7812 72.4922 22.2227 72.4219 20.3242C72.3516 18.4258 72.293 16.7734 72.2461 15.3672C72.2227 13.9609 72.1875 12.625 72.1406 11.3594ZM80.332 8.47656C80.6367 12.8594 80.8945 17.9336 81.1055 23.6992C80.9648 24.4258 80.4023 24.7891 79.418 24.7891C79.1602 24.7891 78.8906 24.7422 78.6094 24.6484C78.3516 24.5312 78.1875 24.3789 78.1172 24.1914V8.47656H80.332ZM77.0625 3.69531C77.0625 2.875 77.543 2.46484 78.5039 2.46484C79.1367 2.46484 79.6523 2.60547 80.0508 2.88672C80.1211 3.14453 80.1562 3.40234 80.1562 3.66016C80.1562 3.89453 80.0625 4.12891 79.875 4.36328C79.6875 4.59766 79.4062 4.71484 79.0312 4.71484C78.6562 4.71484 78.2812 4.63281 77.9062 4.46875C77.5312 4.28125 77.25 4.02344 77.0625 3.69531ZM96.4336 19.1641C94.6758 21.9297 92.332 23.6406 89.4023 24.2969C88.7227 24.4375 88.1016 24.5078 87.5391 24.5078C87 24.5078 86.543 24.5078 86.168 24.5078C85.8164 24.4844 85.418 24.4258 84.9727 24.332C84.5273 24.2383 84.1172 24.0859 83.7422 23.875C82.875 23.3828 82.4414 22.6914 82.4414 21.8008C82.3477 21.3789 82.3008 20.9102 82.3008 20.3945C82.3008 19.8555 82.418 19.1523 82.6523 18.2852C82.8867 17.418 83.3086 16.4805 83.918 15.4727C84.5508 14.4648 85.3125 13.5391 86.2031 12.6953C88.0547 10.9141 90.0586 9.76562 92.2148 9.25C92.8477 9.10938 93.4219 9.03906 93.9375 9.03906C94.4766 9.03906 94.957 9.07422 95.3789 9.14453C96.7383 9.14453 97.6523 10.0703 98.1211 11.9219C98.4258 13.0938 98.6016 14.7344 98.6484 16.8438C98.7188 18.9297 98.7773 20.5469 98.8242 21.6953C98.8945 22.8203 99.0469 23.8516 99.2812 24.7891H97.207C97.1133 24.1562 97.043 23.5938 96.9961 23.1016C96.9492 22.6094 96.9023 22.1523 96.8555 21.7305C96.7383 20.7461 96.5977 19.8906 96.4336 19.1641ZM96.293 13.7148C96.293 12.3555 95.625 11.6758 94.2891 11.6758C94.125 11.6523 93.9609 11.6406 93.7969 11.6406C92.0859 11.6406 90.2812 12.4609 88.3828 14.1016C87.4922 14.8516 86.7305 15.6953 86.0977 16.6328C85.1602 17.9688 84.6914 19.1641 84.6914 20.2188C84.6914 21.6016 85.4883 22.4219 87.082 22.6797C89.1914 22.6328 91.207 21.6719 93.1289 19.7969C93.9492 18.9766 94.6289 18.0859 95.168 17.125C95.918 15.8359 96.293 14.6992 96.293 13.7148ZM117.703 19.1641C116.391 18.9766 115.734 18.6719 115.734 18.25C115.734 17.9453 115.957 17.5938 116.402 17.1953C116.848 16.7969 117.293 16.3867 117.738 15.9648C117.738 14.5586 117.527 12.9883 117.105 11.2539C116.684 9.49609 116.379 8.13672 116.191 7.17578C116.004 6.21484 115.91 5.33594 115.91 4.53906C115.91 3.74219 116.027 3.23828 116.262 3.02734C116.52 2.81641 116.883 2.71094 117.352 2.71094C117.82 2.71094 118.125 2.78125 118.266 2.92188C118.406 3.03906 118.5 3.19141 118.547 3.37891C118.594 3.56641 118.617 3.76562 118.617 3.97656C118.641 4.1875 118.688 4.38672 118.758 4.57422C118.875 5.01953 119.238 5.24219 119.848 5.24219C121.418 5.21875 122.988 5.08984 124.559 4.85547C126.129 4.59766 127.688 4.33984 129.234 4.08203C132.328 3.56641 134.496 3.30859 135.738 3.30859C137.004 3.30859 138 3.34375 138.727 3.41406C138.75 3.85937 138.797 4.24609 138.867 4.57422C138.938 4.90234 138.973 5.17188 138.973 5.38281C138.973 5.78125 138.586 5.92188 137.812 5.80469C125.555 6.25 119.426 7.16406 119.426 8.54688C119.426 10.0703 119.531 11.3828 119.742 12.4844C119.953 13.5625 120.105 14.2422 120.199 14.5234C120.316 14.8047 120.445 14.9453 120.586 14.9453C121.922 14.9453 123.27 14.8281 124.629 14.5938C126.012 14.3594 127.383 14.1133 128.742 13.8555C130.125 13.5742 131.508 13.3164 132.891 13.082C134.273 12.8477 135.633 12.7305 136.969 12.7305C136.992 12.7305 137.004 12.8242 137.004 13.0117C137.004 13.1758 136.992 13.3633 136.969 13.5742C136.898 14.1367 136.898 14.418 136.969 14.418C135.961 14.9805 134.133 15.4375 131.484 15.7891C130.336 15.9531 129.164 16.1055 127.969 16.2461C126.773 16.3867 125.672 16.5391 124.664 16.7031C122.344 17.0312 120.996 17.4648 120.621 18.0039L120.234 24.8945C119.977 25.1523 119.684 25.2812 119.355 25.2812L118.055 25.1758C117.938 25.1758 117.82 25.1758 117.703 25.1758V19.1641Z" fill="#161616"/>
</svg>
