<svg xmlns="http://www.w3.org/2000/svg">

  <symbol viewBox="0 0 24 24" fill="none" id="die">
<path d="M8 14C7.44771 14 7 14.4477 7 15C7 15.5523 7.44771 16 8 16H15.9991C16.5514 16 17 15.5523 17 15C17 14.4477 16.5523 14 16 14H8Z" fill="#0F0F0F"/>
<path d="M10.7041 7.2924C10.3141 6.90253 9.68178 6.90253 9.29176 7.2924L8.49735 8.0865L7.70797 7.29743C7.31795 6.90756 6.68561 6.90756 6.29559 7.29743C5.90557 7.6873 5.90556 8.3194 6.29558 8.70926L7.08496 9.49833L6.29251 10.2905C5.9025 10.6803 5.90249 11.3124 6.29251 11.7023C6.68254 12.0922 7.31488 12.0922 7.7049 11.7023L8.49735 10.9102L9.2951 11.7076C9.68512 12.0975 10.3175 12.0975 10.7075 11.7076C11.0975 11.3177 11.0975 10.6856 10.7075 10.2958L9.90974 9.49833L10.7041 8.70424C11.0942 8.31437 11.0942 7.68227 10.7041 7.2924Z" fill="#0F0F0F"/>
<path d="M16.2918 7.2924C16.6818 6.90253 17.3141 6.90253 17.7041 7.2924C18.0942 7.68227 18.0942 8.31437 17.7041 8.70424L16.9097 9.49833L17.7075 10.2958C18.0975 10.6856 18.0975 11.3177 17.7075 11.7076C17.3175 12.0975 16.6851 12.0975 16.2951 11.7076L15.4974 10.9102L14.7049 11.7023C14.3149 12.0922 13.6825 12.0922 13.2925 11.7023C12.9025 11.3124 12.9025 10.6803 13.2925 10.2905L14.085 9.49833L13.2956 8.70926C12.9056 8.3194 12.9056 7.6873 13.2956 7.29743C13.6856 6.90756 14.318 6.90756 14.708 7.29743L15.4974 8.0865L16.2918 7.2924Z" fill="#0F0F0F"/>
<path fill-rule="evenodd" clip-rule="evenodd" d="M12 23C18.0751 23 23 18.0751 23 12C23 5.92487 18.0751 1 12 1C5.92487 1 1 5.92487 1 12C1 18.0751 5.92487 23 12 23ZM12 20.9932C7.03321 20.9932 3.00683 16.9668 3.00683 12C3.00683 7.03321 7.03321 3.00683 12 3.00683C16.9668 3.00683 20.9932 7.03321 20.9932 12C20.9932 16.9668 16.9668 20.9932 12 20.9932Z" fill="#0F0F0F"/>
  </symbol>

  <symbol viewBox="0 0 24 24" fill="none" id="love">
<path d="M8.88875 14.5414C8.63822 14.0559 8.0431 13.8607 7.55301 14.1058C7.05903 14.3528 6.8588 14.9535 7.10579 15.4474C7.18825 15.6118 7.29326 15.7659 7.40334 15.9127C7.58615 16.1565 7.8621 16.4704 8.25052 16.7811C9.04005 17.4127 10.2573 18.0002 12.0002 18.0002C13.7431 18.0002 14.9604 17.4127 15.7499 16.7811C16.1383 16.4704 16.4143 16.1565 16.5971 15.9127C16.7076 15.7654 16.8081 15.6113 16.8941 15.4485C17.1387 14.961 16.9352 14.3497 16.4474 14.1058C15.9573 13.8607 15.3622 14.0559 15.1117 14.5414C15.0979 14.5663 14.9097 14.892 14.5005 15.2194C14.0401 15.5877 13.2573 16.0002 12.0002 16.0002C10.7431 16.0002 9.96038 15.5877 9.49991 15.2194C9.09071 14.892 8.90255 14.5663 8.88875 14.5414Z" fill="#0F0F0F"/>
<path d="M6.5 7C5 7 5 8.66667 5 8.66667C5 10 7.5 12 8 12C8.5 12 11 10 11 8.66667C11 8.66667 11 7 9.5 7C8 7 8 9 8 9C8 9 8 7 6.5 7Z" fill="#0F0F0F"/>
<path d="M13 8.66667C13 8.66667 13 7 14.5 7C16 7 16 9 16 9C16 9 16 7 17.5 7C19 7 19 8.66667 19 8.66667C19 10 16.5 12 16 12C15.5 12 13 10 1h fill-rule="evenodd" clip-rule="evenodd" d="M12 23C18.0751 23 23 18.0751 23 12C23 5.92487 18.0751 1 12 1C5.92487 1 1 5.92487 1 12C13 8.66667Z" fill="#0F0F0F"/>
<pat 18.0751 5.92487 23 12 23ZM12 20.9932C7.03321 20.9932 3.00683 16.9668 3.00683 12C3.00683 7.03321 7.03321 3.00683 12 3.00683C16.9668 3.00683 20.9932 7.03321 20.9932 12C20.9932 16.9668 16.9668 20.9932 12 20.9932Z" fill="#0F0F0F"/>
  </symbol>

  <symbol viewBox="0 0 24 24" fill="none" id="ninja">
<path d="M8.5 11C9.32843 11 10 10.3284 10 9.5C10 8.67157 9.32843 8 8.5 8C7.67157 8 7 8.67157 7 9.5C7 10.3284 7.67157 11 8.5 11Z" fill="#0F0F0F"/>
<path d="M17 9.5C17 10.3284 16.3284 11 15.5 11C14.6716 11 14 10.3284 14 9.5C14 8.67157 14.6716 8 15.5 8C16.3284 8 17 8.67157 17 9.5Z" fill="#0F0F0F"/>
<path d="M8 15C7.44771 15 7 15.4477 7 16C7 16.5523 7.44771 17 8 17H15.9993C16.5516 17 17 16.5523 17 16C17 15.4477 16.5523 15 16 15H8Z" fill="#0F0F0F"/>
<path fill-rule="evenodd" clip-rule="evenodd" d="M12 23C18.0751 23 23 18.0751 23 12C23 5.92487 18.0751 1 12 1C5.92487 1 1 5.92487 1 12C1 18.0751 5.92487 23 12 23ZM3.00683 12C3.00683 10.1496 3.56567 8.42976 4.52377 7H19.4762C20.4343 8.42976 20.9932 10.1496 20.9932 12H3.00683ZM20.77 14C19.8606 18.0042 16.2794 20.9932 12 20.9932C7.72062 20.9932 4.13935 18.0042 3.23002 14H20.77ZM12 3.00683C14.1386 3.00683 16.1029 3.75334 17.6465 5H6.35353C7.89709 3.75334 9.86137 3.00683 12 3.00683Z" fill="#0F0F0F"/>
  </symbol>

  <symbol viewBox="0 0 24 24" fill="none" id="google">
<path d="M7.55301 13.1058C8.0431 12.8607 8.63822 13.0559 8.88875 13.5414C8.90255 13.5663 9.09071 13.892 9.49991 14.2194C9.96038 14.5877 10.7431 15.0002 12.0002 15.0002C13.2573 15.0002 14.0401 14.5877 14.5005 14.2194C14.9097 13.892 15.0979 13.5663 15.1117 13.5414C15.3622 13.0559 15.9573 12.8607 16.4474 13.1058C16.9352 13.3497 17.1387 13.961 16.8941 14.4485C16.8081 14.6113 16.7076 14.7654 16.5971 14.9127C16.4143 15.1565 16.1383 15.4704 15.7499 15.7811C14.9604 16.4127 13.7431 17.0002 12.0002 17.0002C10.2573 17.0002 9.04005 16.4127 8.25052 15.7811C7.8621 15.4704 7.58615 15.1565 7.40334 14.9127C7.29326 14.7659 7.18825 14.6118 7.10579 14.4474C6.8588 13.9535 7.05903 13.3528 7.55301 13.1058Z" fill="#0F0F0F"/>
<path fill-rule="evenodd" clip-rule="evenodd" d="M23 12C23 18.0751 18.0751 23 12 23C5.92487 23 1 18.0751 1 12C1 5.92487 5.92487 1 12 1C18.0751 1 23 5.92487 23 12ZM3.00683 12C3.00683 16.9668 7.03321 20.9932 12 20.9932C16.9668 20.9932 20.9932 16.9668 20.9932 12C20.9932 10.8118 20.7627 9.67741 20.3441 8.6391L18.9456 9.57142C18.6788 10.955 17.4615 12 16 12C14.6938 12 13.5825 11.1652 13.1707 10H10.8293C10.4175 11.1652 9.30622 12 8 12C6.53855 12 5.32117 10.955 5.05435 9.57142L3.65588 8.6391C3.23726 9.67741 3.00683 10.8118 3.00683 12ZM4.61103 6.87217L5.44448 7.4278C5.97268 6.57106 6.91965 6 8 6C9.30622 6 10.4175 6.83481 10.8293 8H13.1707C13.5825 6.83481 14.6938 6 16 6C17.0804 6 18.0273 6.57106 18.5555 7.4278L19.389 6.87217C17.7647 4.53605 15.0609 3.00683 12 3.00683C8.93907 3.00683 6.23531 4.53605 4.61103 6.87217ZM6.85236 9C6.85236 9.63382 7.36618 10.1476 8 10.1476C8.63382 10.1476 9.14764 9.63382 9.14764 9C9.14764 8.36618 8.63382 7.85236 8 7.85236C7.36618 7.85236 6.85236 8.36618 6.85236 9ZM16 10.1476C15.3662 10.1476 14.8524 9.63382 14.8524 9C14.8524 8.36618 15.3662 7.85236 16 7.85236C16.6338 7.85236 17.1476 8.36618 17.1476 9C17.1476 9.63382 16.6338 10.1476 16 10.1476Z" fill="#0F0F0F"/>
  </symbol>

</svg>