<svg xmlns="http://www.w3.org/2000/svg">
  <symbol viewBox="-8 0 512 512" id="smile">
    <path d="M248 8C111 8 0 119 0 256s111 248 248 248 248-111 248-248S385 8 248 8zm80 168c17.7 0 32 14.3 32 32s-14.3 32-32 32-32-14.3-32-32 14.3-32 32-32zm-160 0c17.7 0 32 14.3 32 32s-14.3 32-32 32-32-14.3-32-32 14.3-32 32-32zm194.8 170.2C334.3 380.4 292.5 400 248 400s-86.3-19.6-114.8-53.8c-13.6-16.3 11-36.7 24.6-20.5 22.4 26.9 55.2 42.2 90.2 42.2s67.8-15.4 90.2-42.2c13.4-16.2 38.1 4.2 24.6 20.5z"/>
  </symbol>

  <symbol viewBox="-8 0 512 512" id="medium">
    <path d="M248 8C111 8 0 119 0 256s111 248 248 248 248-111 248-248S385 8 248 8zm-96 206.6l-28.7 28.7c-14.8 14.8-37.8-7.5-22.6-22.6l28.7-28.7-28.7-28.7c-15-15 7.7-37.6 22.6-22.6l28.7 28.7 28.7-28.7c15-15 37.6 7.7 22.6 22.6L174.6 192l28.7 28.7c15.2 15.2-7.9 37.4-22.6 22.6L152 214.6zM248 416c-35.3 0-64-28.7-64-64s28.7-64 64-64 64 28.7 64 64-28.7 64-64 64zm147.3-195.3c15.2 15.2-7.9 37.4-22.6 22.6L344 214.6l-28.7 28.7c-14.8 14.8-37.8-7.5-22.6-22.6l28.7-28.7-28.7-28.7c-15-15 7.7-37.6 22.6-22.6l28.7 28.7 28.7-28.7c15-15 37.6 7.7 22.6 22.6L366.6 192l28.7 28.7z"/>
  </symbol>
  <symbol viewBox="-8 0 512 512" id="sad">
    <path d="M248 8C111 8 0 119 0 256s111 248 248 248 248-111 248-248S385 8 248 8zM136 240c0-9.3 4.1-17.5 10.5-23.4l-31-9.3c-8.5-2.5-13.3-11.5-10.7-19.9 2.5-8.5 11.4-13.2 19.9-10.7l80 24c8.5 2.5 13.3 11.5 10.7 19.9-2.1 6.9-8.4 11.4-15.3 11.4-.5 0-1.1-.2-1.7-.2.7 2.7 1.7 5.3 1.7 8.2 0 17.7-14.3 32-32 32S136 257.7 136 240zm168 154.2c-27.8-33.4-84.2-33.4-112.1 0-13.5 16.3-38.2-4.2-24.6-20.5 20-24 49.4-37.8 80.6-37.8s60.6 13.8 80.6 37.8c13.8 16.5-11.1 36.6-24.5 20.5zm76.6-186.9l-31 9.3c6.3 5.8 10.5 14.1 10.5 23.4 0 17.7-14.3 32-32 32s-32-14.3-32-32c0-2.9.9-5.6 1.7-8.2-.6.1-1.1.2-1.7.2-6.9 0-13.2-4.5-15.3-11.4-2.5-8.5 2.3-17.4 10.7-19.9l80-24c8.4-2.5 17.4 2.3 19.9 10.7 2.5 8.5-2.3 17.4-10.8 19.9z"/>
  </symbol>
</svg>